<svg xmlns="http://www.w3.org/2000/svg" viewBox="0 0 24 24" role="img" aria-label="Google Cloud">
  <path fill="#EA4335" d="M12.19 10.36h7.38c.08.41.13.84.13 1.28 0 4.42-3.58 8-8 8-2.31 0-4.39-1-5.83-2.57l2.83-2.83c.78.78 1.86 1.26 3 1.26 2.21 0 4-1.79 4-4 0-.41-.06-.81-.17-1.19z"/>
  <path fill="#34A853" d="M6.71 17.07C5.61 15.77 5 14.08 5 12.28c0-1.8.61-3.49 1.71-4.79L9.54 10.3c-.48.48-.77 1.14-.77 1.86 0 1.45 1.18 2.63 2.63 2.63.92 0 1.73-.48 2.19-1.2l2.83 2.83c-1.44 1.57-3.52 2.57-5.71 2.57-2.21 0-4.19-1.01-5.5-2.92z"/>
  <path fill="#4A90E2" d="M12.19 2.64c2.21 0 4.19 1.01 5.5 2.92l-2.83 2.83c-.46-.72-1.27-1.2-2.19-1.2-1.45 0-2.63 1.18-2.63 2.63 0 .72.29 1.38.77 1.86L6.71 7.49C5.61 8.79 5 10.48 5 12.28c0-.01 0-.01 0-.02 0-4.42 3.58-8.01 7.19-8.62z"/>
  <path fill="#FBBC05" d="M19.7 11.64c0 .44-.05.87-.13 1.28H12.19V10.36h7.51c.08.41.13.84.13 1.28z"/>
</svg>
